<?xml version="1.0" encoding="iso-8859-1"?>
<!-- Generator: Adobe Illustrator 19.0.0, SVG Export Plug-In . SVG Version: 6.00 Build 0)  -->
<svg version="1.1" id="Capa_1" xmlns="http://www.w3.org/2000/svg" xmlns:xlink="http://www.w3.org/1999/xlink" x="0px" y="0px"
	 viewBox="0 0 496 496" style="enable-background:new 0 0 496 496;" xml:space="preserve">
<circle style="fill:#789DC3;" cx="128" cy="368" r="120"/>
<path d="M128,496C57.6,496,0,438.4,0,368s57.6-128,128-128s128,57.6,128,128S198.4,496,128,496z M128,256c-61.6,0-112,50.4-112,112
	s50.4,112,112,112s112-50.4,112-112S189.6,256,128,256z"/>
<polygon style="fill:#FFFFFF;" points="104,408 88,352 128,328 168,352 152,408 "/>
<path d="M152,416h-48c-3.2,0-6.4-2.4-8-5.6l-16-56c-0.8-3.2,0.8-7.2,3.2-8.8l40-24c2.4-1.6,5.6-1.6,8,0l40,24
	c3.2,1.6,4.8,5.6,3.2,8.8l-16,56C158.4,413.6,155.2,416,152,416z M110.4,400h36l12.8-44L128,337.6L97.6,356L110.4,400z"/>
<path style="fill:#FFFFFF;" d="M112,280h32l18.4-27.2c-22.4-6.4-45.6-6.4-68,0L112,280z"/>
<path d="M144,288h-32c-2.4,0-4.8-1.6-6.4-3.2l-18.4-27.2c-2.4-4-1.6-8.8,2.4-11.2c0.8-0.8,1.6-0.8,2.4-0.8c24-7.2,48.8-7.2,72.8,0
	c4,1.6,6.4,5.6,5.6,9.6c0,0.8-0.8,1.6-0.8,2.4l-18.4,27.2C148.8,286.4,146.4,288,144,288z M116,272h23.2l9.6-13.6
	c-13.6-2.4-28-2.4-42.4,0L116,272z"/>
<rect x="120" y="280" width="16" height="48"/>
<rect x="60" y="316.836" transform="matrix(-0.5145 0.8575 -0.8575 -0.5145 394.5642 456.6736)" width="16" height="46.4"/>
<path style="fill:#FFFFFF;" d="M10.4,344H40l16-32l-13.6-28C26.4,300.8,15.2,321.6,10.4,344z"/>
<path d="M40,352H10.4c-4.8,0-8-3.2-8-8c0-0.8,0-0.8,0-1.6c4.8-24,16.8-46.4,33.6-64c3.2-3.2,8-3.2,11.2,0c0.8,0.8,1.6,1.6,2.4,2.4
	l13.6,28c0.8,2.4,0.8,4.8,0,7.2l-16,32C45.6,350.4,43.2,352,40,352z M20.8,336h14.4l12-24L40,298.4C31.2,309.6,24.8,322.4,20.8,336z
	"/>
<rect x="164.788" y="332.002" transform="matrix(-0.8574 0.5146 -0.5146 -0.8574 524.141 534.7858)" width="46.399" height="16"/>
<path style="fill:#FFFFFF;" d="M216,344h29.6c-4.8-22.4-16-43.2-32-60L200,312L216,344z"/>
<path d="M245.6,352H216c-3.2,0-5.6-1.6-7.2-4.8l-16-32c-0.8-2.4-0.8-4.8,0-7.2l13.6-28c1.6-4,6.4-5.6,10.4-3.2
	c0.8,0,1.6,0.8,2.4,1.6c16.8,17.6,28.8,40,33.6,64c0.8,4-1.6,8.8-6.4,9.6C246.4,352,246.4,352,245.6,352z M220.8,336h14.4
	c-4-13.6-10.4-26.4-20-37.6l-6.4,13.6L220.8,336z"/>
<rect x="156" y="404" transform="matrix(-0.8 0.6 -0.6 -0.8 549.6 664.8)" width="16" height="40"/>
<path style="fill:#FFFFFF;" d="M224,440l-32-8l-32,24v27.2C185.6,476.8,208,460.8,224,440z"/>
<path d="M160,491.2c-4.8,0-8-3.2-8-8V456c0-2.4,0.8-4.8,3.2-6.4l32-24c1.6-1.6,4.8-1.6,6.4-1.6l32,8c4,0.8,7.2,5.6,5.6,9.6
	c0,0.8-0.8,2.4-1.6,3.2c-16.8,22.4-40.8,39.2-68,46.4C161.6,491.2,160.8,491.2,160,491.2z M168,460v12.8c16-6.4,29.6-16,41.6-28
	l-16-4L168,460z"/>
<rect x="72.024" y="415.984" transform="matrix(-0.5998 0.8001 -0.8001 -0.5998 486.4638 604.6684)" width="39.998" height="15.999"/>
<path style="fill:#FFFFFF;" d="M32,440c16,20.8,38.4,36.8,64,43.2V456l-32-24L32,440z"/>
<path d="M96,491.2c-0.8,0-1.6,0-2.4,0c-27.2-7.2-51.2-24-68-46.4c-2.4-3.2-1.6-8.8,1.6-11.2c0.8-0.8,1.6-0.8,3.2-1.6l32-8
	c1.6,0,4.8,0,6.4,1.6l32,24c2.4,1.6,3.2,4,3.2,6.4v27.2C104,488,100.8,491.2,96,491.2L96,491.2z M46.4,444.8
	c11.2,12,25.6,21.6,41.6,28V460l-25.6-19.2L46.4,444.8z"/>
<circle style="fill:#D3D2D6;" cx="368" cy="368" r="120"/>
<path d="M368,496c-70.4,0-128-57.6-128-128s57.6-128,128-128s128,57.6,128,128S438.4,496,368,496z M368,256
	c-61.6,0-112,50.4-112,112s50.4,112,112,112s112-50.4,112-112S429.6,256,368,256z"/>
<path d="M285.6,461.6l-11.2-11.2l20-20c34.4-34.4,34.4-90.4,0-124.8l-20-20l11.2-11.2l20,20c40.8,40.8,40.8,106.4,0,147.2
	L285.6,461.6z"/>
<rect x="304" y="360" width="48" height="16"/>
<rect x="294.417" y="320.164" transform="matrix(-0.9486 0.3165 -0.3165 -0.9486 726.6675 538.3004)" width="50.4" height="16"/>
<rect x="311.617" y="382.639" transform="matrix(-0.3162 0.9487 -0.9487 -0.3162 807.5938 233.5781)" width="16" height="50.4"/>
<path d="M450.4,461.6l-20-20c-40.8-40.8-40.8-106.4,0-147.2l20-20l11.2,11.2l-20,20c-34.4,34.4-34.4,90.4,0,124.8l20,20L450.4,461.6
	z"/>
<rect x="384" y="360" width="48" height="16"/>
<rect x="407.604" y="302.66" transform="matrix(-0.3162 0.9487 -0.9487 -0.3162 858.0562 37.2473)" width="16" height="50.4"/>
<rect x="390.419" y="400.148" transform="matrix(-0.9486 0.3165 -0.3165 -0.9486 939.0503 663.7724)" width="50.4" height="16"/>
<circle style="fill:#F48827;" cx="248" cy="128" r="120"/>
<path d="M248,256c-70.4,0-128-57.6-128-128S177.6,0,248,0s128,57.6,128,128S318.4,256,248,256z M248,16c-61.6,0-112,50.4-112,112
	s50.4,112,112,112s112-50.4,112-112S309.6,16,248,16z"/>
<rect x="240" y="8" width="16" height="240"/>
<path d="M248.8,80H248c-22.4,0-44-6.4-62.4-19.2L164,46.4l8.8-13.6L194.4,48c16,10.4,34.4,16,53.6,16h0.8c19.2,0,37.6-5.6,53.6-16
	L324,33.6l8.8,13.6l-21.6,14.4C292,73.6,270.4,80,248.8,80z"/>
<path d="M323.2,222.4L301.6,208c-16-10.4-34.4-16-53.6-16h-0.8c-19.2,0-37.6,5.6-53.6,16L172,222.4l-8.8-13.6l21.6-14.4
	c18.4-12,40-19.2,62.4-19.2h0.8c22.4,0,44,6.4,62.4,19.2l21.6,14.4L323.2,222.4z"/>
<rect x="128" y="120" width="240" height="16"/>
<g>
</g>
<g>
</g>
<g>
</g>
<g>
</g>
<g>
</g>
<g>
</g>
<g>
</g>
<g>
</g>
<g>
</g>
<g>
</g>
<g>
</g>
<g>
</g>
<g>
</g>
<g>
</g>
<g>
</g>
</svg>
